<?xml version="1.0" standalone="no"?>
<!DOCTYPE svg PUBLIC "-//W3C//DTD SVG 20010904//EN"
 "http://www.w3.org/TR/2001/REC-SVG-20010904/DTD/svg10.dtd">
<svg version="1.0" xmlns="http://www.w3.org/2000/svg"
 width="512.000000pt" height="512.000000pt" viewBox="0 0 512.000000 512.000000"
 preserveAspectRatio="xMidYMid meet">
<metadata>
Created by potrace 1.14, written by Peter Selinger 2001-2017
</metadata>
<g transform="translate(0.000000,512.000000) scale(0.100000,-0.100000)"
fill="#000000" stroke="none">
<path d="M2306 4987 c-22 -22 -22 -28 -22 -206 1 -100 -2 -185 -6 -187 -4 -3
-89 -5 -188 -6 -158 0 -184 -3 -203 -18 -22 -18 -22 -23 -22 -259 0 -215 2
-242 17 -258 16 -15 41 -17 202 -18 102 0 188 -4 192 -8 10 -10 11 -447 2
-454 -5 -2 -17 -6 -27 -8 -11 -2 -53 -13 -93 -24 -636 -180 -1074 -762 -1072
-1426 1 -381 164 -770 432 -1033 64 -63 161 -144 206 -172 35 -21 37 -25 20
-32 -10 -5 -28 -22 -40 -39 l-21 -29 -65 49 c-120 91 -276 259 -351 378 -15
23 -35 47 -46 52 -26 15 -78 -5 -87 -32 -4 -12 -7 -93 -6 -179 1 -117 -2 -158
-11 -159 -7 0 -56 -1 -109 -2 -102 -2 -118 -9 -131 -60 -7 -25 70 -123 193
-247 120 -121 182 -174 295 -252 132 -91 159 -103 193 -89 16 7 35 23 42 37 8
13 17 24 21 24 5 0 48 -17 96 -39 198 -87 368 -136 583 -167 25 -3 131 -8 235
-9 175 -3 217 0 408 29 120 19 357 97 501 167 67 32 69 32 82 13 40 -58 74
-68 122 -36 15 11 47 32 72 48 47 30 144 101 195 144 38 31 212 205 245 245
14 17 37 45 53 63 33 40 35 85 7 110 -16 13 -42 17 -118 19 -53 1 -100 2 -104
2 -3 1 -6 65 -6 144 0 78 -1 154 -1 169 -1 37 -37 69 -70 63 -27 -4 -37 -15
-100 -102 -92 -128 -205 -246 -314 -330 -55 -43 -59 -44 -72 -27 -8 11 -15 22
-15 27 0 4 -12 12 -26 17 -25 10 -25 11 48 66 210 160 390 397 486 639 76 193
102 345 98 565 -2 91 -7 176 -10 190 -3 14 -8 39 -11 56 -18 136 -97 345 -185
489 -208 341 -520 567 -934 677 l-49 13 -1 219 c-1 120 2 223 6 229 5 8 65 12
193 12 162 1 187 3 203 18 15 16 17 44 19 254 1 306 22 281 -226 281 -100 0
-185 2 -188 6 -3 3 -6 89 -7 192 -1 245 24 224 -278 224 -225 0 -229 0 -252
-23z m404 -1957 c237 -36 442 -166 612 -391 35 -46 106 -206 129 -289 32 -122
33 -318 0 -445 -63 -249 -231 -465 -451 -583 -232 -125 -474 -148 -720 -70
-273 87 -500 310 -588 578 -39 117 -50 194 -47 323 6 242 96 449 270 622 128
128 318 230 470 252 147 21 203 22 325 3z"/>
</g>
</svg>
